<svg width="18" height="22" viewBox="0 0 18 22" fill="none" xmlns="http://www.w3.org/2000/svg">
<g id="Frame 1">
<g id="Subtract">
<mask id="path-1-outside-1_1067_4033" maskUnits="userSpaceOnUse" x="2.47363" y="0" width="15" height="21" fill="black">
<rect fill="white" x="2.47363" width="15" height="21"/>
<path fill-rule="evenodd" clip-rule="evenodd" d="M6.0789 1C4.64005 1 3.47363 2.16642 3.47363 3.60527V3.60528H10.421C11.8599 3.60528 13.0263 4.7717 13.0263 6.21054V19.2369L13.8947 19.2368C15.3335 19.2368 16.4999 18.0704 16.4999 16.6316V3.60526C16.4999 2.16642 15.3335 1 13.8947 1H6.0789Z"/>
</mask>
<path d="M3.47363 3.60528H2.60521V4.4737H3.47363V3.60528ZM13.0263 19.2369H12.1579V20.1053L13.0263 20.1053L13.0263 19.2369ZM13.8947 19.2368V18.3684H13.8947L13.8947 19.2368ZM4.34205 3.60527C4.34205 2.64603 5.11967 1.86842 6.0789 1.86842V0.131579C4.16043 0.131579 2.60521 1.6868 2.60521 3.60527H4.34205ZM4.34205 3.60528V3.60527H2.60521V3.60528H4.34205ZM3.47363 4.4737H10.421V2.73686H3.47363V4.4737ZM10.421 4.4737C11.3803 4.4737 12.1579 5.25131 12.1579 6.21054H13.8947C13.8947 4.29208 12.3395 2.73686 10.421 2.73686V4.4737ZM12.1579 6.21054V19.2369H13.8947V6.21054H12.1579ZM13.8947 18.3684L13.0263 18.3684L13.0263 20.1053L13.8947 20.1053L13.8947 18.3684ZM15.6315 16.6316C15.6315 17.5908 14.8539 18.3684 13.8947 18.3684V20.1053C15.8132 20.1053 17.3684 18.55 17.3684 16.6316H15.6315ZM15.6315 3.60526V16.6316H17.3684V3.60526H15.6315ZM13.8947 1.86842C14.8539 1.86842 15.6315 2.64603 15.6315 3.60526H17.3684C17.3684 1.6868 15.8131 0.131579 13.8947 0.131579V1.86842ZM6.0789 1.86842H13.8947V0.131579H6.0789V1.86842Z" fill="#57298A" mask="url(#path-1-outside-1_1067_4033)"/>
</g>
<rect id="Rectangle 106" x="0.434211" y="4.03948" width="12.1579" height="17.3684" rx="2.17105" stroke="#57298A" stroke-width="0.868421"/>
</g>
</svg>
